<?xml version="1.0" encoding="UTF-8" standalone="no"?>
<!DOCTYPE svg PUBLIC "-//W3C//DTD SVG 1.1//EN" "http://www.w3.org/Graphics/SVG/1.1/DTD/svg11.dtd">
<svg version="1.1" xmlns="http://www.w3.org/2000/svg" xmlns:xlink="http://www.w3.org/1999/xlink" preserveAspectRatio="xMidYMid meet" viewBox="0 0 640 640" width="640" height="640"><defs><path d="M234.61 78.99L358.2 78.99L358.2 165.51L234.61 165.51L234.61 78.99Z" id="aFd437nAB"></path><path d="M269.44 165.51L322.25 165.51L322.25 323.93L269.44 323.93L269.44 165.51Z" id="adMuPrUOD"></path><path d="M216.63 186.29L269.44 186.29L269.44 234.61L216.63 234.61L216.63 186.29Z" id="f40bnWxXD"></path><path d="M113.26 157.75L166.07 157.75L166.07 206.07L113.26 206.07L113.26 157.75Z" id="a2xZzh2N1O"></path><path d="M163.82 174.04L216.63 174.04L216.63 222.36L163.82 222.36L163.82 174.04Z" id="b1ItI20qlc"></path><path d="M322.25 186.29L375.06 186.29L375.06 234.61L322.25 234.61L322.25 186.29Z" id="dfpho3W6B"></path><path d="M425.62 149.89L478.43 149.89L478.43 198.2L425.62 198.2L425.62 149.89Z" id="h1IKbueAwp"></path><path d="M373.93 165.51L426.74 165.51L426.74 213.82L373.93 213.82L373.93 165.51Z" id="m4x1jzud"></path><path d="M224.49 323.93L368.31 323.93L368.31 370L224.49 370L224.49 323.93Z" id="jqYWrBmPV"></path><path d="M201.8 370L254.61 370L254.61 418.31L201.8 418.31L201.8 370Z" id="a2AQYYFcbF"></path><path d="M175.39 418.31L228.2 418.31L228.2 466.63L175.39 466.63L175.39 418.31Z" id="i4zUbZAlpe"></path><path d="M148.99 466.63L201.8 466.63L201.8 514.94L148.99 514.94L148.99 466.63Z" id="o19D9SRtbb"></path><path d="M331.8 370L384.61 370L384.61 418.31L331.8 418.31L331.8 370Z" id="a1D37OHPFH"></path><path d="M358.2 418.31L411.01 418.31L411.01 466.63L358.2 466.63L358.2 418.31Z" id="gGaO4HRA"></path><path d="M381.24 466.63L434.04 466.63L434.04 514.94L381.24 514.94L381.24 466.63Z" id="kvWoNsrKY"></path></defs><g><g><g><use xlink:href="#aFd437nAB" opacity="1" fill="#ffffff" fill-opacity="1"></use><g><use xlink:href="#aFd437nAB" opacity="1" fill-opacity="0" stroke="#050000" stroke-width="1" stroke-opacity="1"></use></g></g><g><use xlink:href="#adMuPrUOD" opacity="1" fill="#ffffff" fill-opacity="1"></use><g><use xlink:href="#adMuPrUOD" opacity="1" fill-opacity="0" stroke="#000000" stroke-width="1" stroke-opacity="1"></use></g></g><g><use xlink:href="#f40bnWxXD" opacity="1" fill="#ffffff" fill-opacity="1"></use><g><use xlink:href="#f40bnWxXD" opacity="1" fill-opacity="0" stroke="#000000" stroke-width="1" stroke-opacity="1"></use></g></g><g><use xlink:href="#a2xZzh2N1O" opacity="1" fill="#ffffff" fill-opacity="1"></use><g><use xlink:href="#a2xZzh2N1O" opacity="1" fill-opacity="0" stroke="#000000" stroke-width="1" stroke-opacity="1"></use></g></g><g><use xlink:href="#b1ItI20qlc" opacity="1" fill="#ffffff" fill-opacity="1"></use><g><use xlink:href="#b1ItI20qlc" opacity="1" fill-opacity="0" stroke="#000000" stroke-width="1" stroke-opacity="1"></use></g></g><g><use xlink:href="#dfpho3W6B" opacity="1" fill="#ffffff" fill-opacity="1"></use><g><use xlink:href="#dfpho3W6B" opacity="1" fill-opacity="0" stroke="#000000" stroke-width="1" stroke-opacity="1"></use></g></g><g><use xlink:href="#h1IKbueAwp" opacity="1" fill="#ffffff" fill-opacity="1"></use><g><use xlink:href="#h1IKbueAwp" opacity="1" fill-opacity="0" stroke="#000000" stroke-width="1" stroke-opacity="1"></use></g></g><g><use xlink:href="#m4x1jzud" opacity="1" fill="#ffffff" fill-opacity="1"></use><g><use xlink:href="#m4x1jzud" opacity="1" fill-opacity="0" stroke="#000000" stroke-width="1" stroke-opacity="1"></use></g></g><g><use xlink:href="#jqYWrBmPV" opacity="1" fill="#ffffff" fill-opacity="1"></use><g><use xlink:href="#jqYWrBmPV" opacity="1" fill-opacity="0" stroke="#020002" stroke-width="1" stroke-opacity="1"></use></g></g><g><use xlink:href="#a2AQYYFcbF" opacity="1" fill="#ffffff" fill-opacity="1"></use><g><use xlink:href="#a2AQYYFcbF" opacity="1" fill-opacity="0" stroke="#000000" stroke-width="1" stroke-opacity="1"></use></g></g><g><use xlink:href="#i4zUbZAlpe" opacity="1" fill="#ffffff" fill-opacity="1"></use><g><use xlink:href="#i4zUbZAlpe" opacity="1" fill-opacity="0" stroke="#000000" stroke-width="1" stroke-opacity="1"></use></g></g><g><use xlink:href="#o19D9SRtbb" opacity="1" fill="#ffffff" fill-opacity="1"></use><g><use xlink:href="#o19D9SRtbb" opacity="1" fill-opacity="0" stroke="#000000" stroke-width="1" stroke-opacity="1"></use></g></g><g><use xlink:href="#a1D37OHPFH" opacity="1" fill="#ffffff" fill-opacity="1"></use><g><use xlink:href="#a1D37OHPFH" opacity="1" fill-opacity="0" stroke="#050004" stroke-width="1" stroke-opacity="1"></use></g></g><g><use xlink:href="#gGaO4HRA" opacity="1" fill="#ffffff" fill-opacity="1"></use><g><use xlink:href="#gGaO4HRA" opacity="1" fill-opacity="0" stroke="#050004" stroke-width="1" stroke-opacity="1"></use></g></g><g><use xlink:href="#kvWoNsrKY" opacity="1" fill="#ffffff" fill-opacity="1"></use><g><use xlink:href="#kvWoNsrKY" opacity="1" fill-opacity="0" stroke="#060005" stroke-width="1" stroke-opacity="1"></use></g></g></g></g></svg>