<?xml version="1.0"?>
<svg xmlns="http://www.w3.org/2000/svg" height="512px" viewBox="0 0 512.09577 512" width="512px"><path d="m469.09375 124.5625c-16.46875-42.433594-51.140625-75.21875-94.429688-89.28125l-90.453124-28.382812c-43.625-13.628907-91.078126-6.707032-128.992188 18.816406l-79.113281 52.769531c-38.132813 25.285156-62.792969 66.460937-67.078125 112.015625l-8.414063 94.78125c-4.132812 45.300781 12.796875 89.984375 45.910157 121.171875l68.726562 64.855469c27.503906 26.199218 64.0625 40.769531 102.050781 40.667968 7.355469 0 14.699219-.527343 21.980469-1.578124l94.242188-13.328126c45.316406-6.535156 85.269531-33.160156 108.742187-72.472656l48.449219-82.144531c23.558594-39.003906 27.898437-86.667969 11.777344-129.289063zm6.972656 209.179688v.058593l-48.496094 82.082031c-20.824218 34.859376-56.242187 58.480469-96.425781 64.308594l-94.269531 13.328125c-39.992188 6.039063-80.53125-6.699219-109.882812-34.523437l-68.761719-64.914063c-29.316407-27.625-44.292969-67.199219-40.609375-107.308593l8.394531-94.71875c3.828125-40.414063 25.714844-76.933594 59.546875-99.371094l79.179688-52.820313c33.605468-22.636719 75.675781-28.773437 114.347656-16.683593l90.453125 28.363281c38.328125 12.460937 69.027343 41.480469 83.625 79.046875l33.375 88.582031c14.273437 37.761719 10.410156 79.984375-10.476563 114.527344zm0 0" fill="#d9d9d9"/><path d="m401.117188 145.042969c-28.5 0-53.03125 20.128906-58.589844 48.078125-5.5625 27.949218 9.398437 55.9375 35.726562 66.84375s56.691406 1.695312 72.523438-22.003906c15.832031-23.695313 12.722656-55.273438-7.429688-75.421876-11.175781-11.238281-26.382812-17.539062-42.230468-17.496093zm30.164062 89.910156c-14.394531 14.390625-36.949219 16.609375-53.875 5.296875-16.921875-11.308594-23.5-33-15.707031-51.804688 7.789062-18.804687 27.78125-29.488281 47.742187-25.515624 19.964844 3.972656 34.339844 21.492187 34.339844 41.847656.03125 11.324218-4.46875 22.191406-12.5 30.175781zm0 0" fill="#d9d9d9"/><path d="m204.847656 179.175781c.003906-28.496093-20.125-53.023437-48.074218-58.585937-27.945313-5.5625-55.933594 9.390625-66.839844 35.71875-10.910156 26.328125-1.703125 56.691406 21.988281 72.527344 23.695313 15.835937 55.273437 12.730468 75.425781-7.417969 11.238282-11.179688 17.542969-26.386719 17.5-42.242188zm-59.730468 42.667969c-20.355469 0-37.878907-14.378906-41.847657-34.34375-3.972656-19.964844 6.714844-39.953125 25.519531-47.742188 18.808594-7.789062 40.496094-1.207031 51.804688 15.71875 11.308594 16.925782 9.082031 39.484376-5.3125 53.875-7.984375 8.027344-18.84375 12.523438-30.164062 12.492188zm0 0" fill="#d9d9d9"/><path d="m110.984375 290.109375c-16.285156 0-30.304687 11.5-33.484375 27.46875-3.179688 15.972656 5.363281 31.964844 20.40625 38.199219 15.046875 6.234375 32.398438.972656 41.445312-12.566406 9.050782-13.535157 7.277344-31.582032-4.238281-43.097657-6.382812-6.421875-15.074219-10.023437-24.128906-10.003906zm12.066406 46.199219c-6.753906 6.453125-17.382812 6.453125-24.132812 0-4.882813-4.878906-6.34375-12.21875-3.703125-18.597656 2.640625-6.378907 8.863281-10.535157 15.769531-10.535157 6.902344 0 13.125 4.15625 15.765625 10.535157 2.640625 6.378906 1.179688 13.71875-3.699219 18.597656zm0 0" fill="#d9d9d9"/><path d="m281.648438 76.777344c-16.28125-.003906-30.300782 11.496094-33.480469 27.46875-3.183594 15.96875 5.363281 31.964844 20.40625 38.199218 15.042969 6.234376 32.394531.972657 41.445312-12.566406 9.050781-13.539062 7.273438-31.582031-4.238281-43.101562-6.386719-6.421875-15.074219-10.019532-24.132812-10zm12.066406 46.199218c-6.75 6.449219-17.378906 6.449219-24.132813 0-4.878906-4.878906-6.339843-12.222656-3.699219-18.597656 2.640626-6.378906 8.863282-10.539062 15.765626-10.539062 6.90625 0 13.128906 4.160156 15.769531 10.539062 2.640625 6.375 1.179687 13.71875-3.703125 18.597656zm0 0" fill="#d9d9d9"/><path d="m331.816406 331.738281c-6.46875 6.464844-8.996094 15.890625-6.632812 24.726563 2.367187 8.835937 9.265625 15.738281 18.101562 18.109375 8.832032 2.367187 18.261719-.15625 24.730469-6.621094 9.859375-10.019531 9.796875-26.117187-.144531-36.058594-9.9375-9.9375-26.03125-10.007812-36.054688-.148437zm24.132813 24.140625c-2.878907 2.875-7.390625 3.320313-10.773438 1.058594-3.386719-2.261719-4.703125-6.601562-3.144531-10.363281 1.558594-3.757813 5.558594-5.894531 9.550781-5.101563 3.992188.796875 6.867188 4.300782 6.867188 8.371094 0 2.261719-.898438 4.433594-2.5 6.035156zm0 0" fill="#d9d9d9"/><path d="m247.515625 238.910156c-16.285156-.003906-30.304687 11.496094-33.484375 27.46875-3.179688 15.96875 5.367188 31.964844 20.410156 38.199219 15.042969 6.234375 32.394532.972656 41.445313-12.566406 9.050781-13.539063 7.273437-31.582031-4.238281-43.097657-6.386719-6.421874-15.074219-10.023437-24.132813-10.003906zm12.066406 46.199219c-6.75 6.449219-17.378906 6.449219-24.132812 0-4.882813-4.878906-6.34375-12.21875-3.699219-18.597656 2.640625-6.378907 8.863281-10.539063 15.765625-10.539063s13.128906 4.160156 15.769531 10.539063c2.640625 6.378906 1.179688 13.71875-3.703125 18.597656zm0 0" fill="#d9d9d9"/><path d="m220.882812 402.085938c-16.285156 0-30.300781 11.503906-33.476562 27.476562s5.375 31.960938 20.421875 38.191406c15.042969 6.230469 32.394531.964844 41.441406-12.578125 9.042969-13.539062 7.265625-31.585937-4.253906-43.097656-6.386719-6.417969-15.078125-10.015625-24.132813-9.992187zm12.066407 46.199218c-6.753907 6.441406-17.375 6.441406-24.132813 0-4.882812-4.882812-6.34375-12.222656-3.699218-18.601562 2.640624-6.375 8.863281-10.535156 15.765624-10.535156 6.902344 0 13.128907 4.160156 15.769532 10.535156 2.640625 6.378906 1.179687 13.71875-3.703125 18.601562zm0 0" fill="#d9d9d9"/><path d="m424.242188 309.652344c-.832032-.753906-1.78125-1.359375-2.816407-1.792969-3.183593-1.296875-6.828125-.59375-9.300781 1.792969-.753906.828125-1.359375 1.78125-1.792969 2.816406-.4375 1.027344-.667969 2.128906-.683593 3.242188-.023438 2.269531.871093 4.453124 2.476562 6.058593s3.789062 2.496094 6.058594 2.476563c1.113281-.015625 2.214844-.246094 3.242187-.683594 1.042969-.414062 2-1.019531 2.816407-1.792969 1.558593-1.636719 2.441406-3.800781 2.472656-6.058593-.011719-1.113282-.242188-2.214844-.679688-3.242188-.433594-1.035156-1.039062-1.988281-1.792968-2.816406zm0 0" fill="#d9d9d9"/><path d="m270.640625 360.851562c-.828125-.753906-1.78125-1.359374-2.816406-1.792968-3.179688-1.292969-6.828125-.59375-9.300781 1.792968-.753907.832032-1.359376 1.78125-1.792969 2.816407-.433594 1.027343-.667969 2.128906-.679688 3.242187-.023437 2.269532.867188 4.453125 2.472657 6.058594 1.605468 1.605469 3.789062 2.5 6.058593 2.476562 1.117188-.015624 2.21875-.246093 3.242188-.683593 1.046875-.414063 2-1.019531 2.816406-1.792969 1.558594-1.636719 2.441406-3.796875 2.476563-6.058594-.015626-1.113281-.246094-2.214844-.683594-3.242187-.433594-1.035157-1.039063-1.984375-1.792969-2.816407zm0 0" fill="#d9d9d9"/><path d="m199.558594 350.492188c-3.183594-1.285157-6.828125-.582032-9.300782 1.800781-.753906.828125-1.359374 1.777343-1.792968 2.808593-.441406 1.035157-.671875 2.148438-.683594 3.277344-.019531 2.269532.871094 4.453125 2.476562 6.058594 1.605469 1.605469 3.789063 2.496094 6.058594 2.472656 1.113282-.011718 2.214844-.246094 3.242188-.683594 3.25-1.226562 5.371094-4.375 5.289062-7.847656-.011718-1.121094-.242187-2.222656-.679687-3.253906-.433594-1.03125-1.039063-1.980469-1.792969-2.804688-.828125-.761718-1.78125-1.378906-2.816406-1.828124zm0 0" fill="#d9d9d9"/><path d="m279.175781 181.625c-.832031-.75-1.785156-1.359375-2.816406-1.796875-3.183594-1.289063-6.828125-.585937-9.300781 1.796875-.753906.828125-1.359375 1.777344-1.792969 2.808594-.441406 1.039062-.671875 2.152344-.683594 3.277344-.023437 2.269531.871094 4.453124 2.476563 6.058593 1.605468 1.605469 3.789062 2.496094 6.058594 2.476563 1.113281-.015625 2.214843-.246094 3.242187-.683594 3.25-1.230469 5.371094-4.378906 5.289063-7.851562-.011719-1.117188-.242188-2.222657-.679688-3.25-.433594-1.042969-1.039062-2-1.792969-2.835938zm0 0" fill="#d9d9d9"/></svg>
