<svg xmlns="http://www.w3.org/2000/svg" width="300" height="300">
    <g fill="none" stroke="#ff0" stroke-linejoin="round" stroke-width="8">
        <path stroke-linecap="round" d="M122.742 6.996v16.781H62.718L49.67 25.875V4.899l13.048 2.097zM235.613 15.387h-112M219.157 4v22.774l-13.629-2.098V6.098zM132.891 77.565v32.887h-58.21V77.565zM71.635 102.961H18.861L4 109.254v-30.49l14.86 6.293h52.775M18.86 85.057v17.904" />
        <path stroke-linecap="round" d="M62.718 6.996v16.781L30.098 126.26v47.48l32.62 102.483v16.78M117.015 25.614v49.44" />
        <path stroke-linecap="round" d="M90.333 166.136H32.472l-16.293 9.604v-50.405l16.293 7.507h57.86M134.487 111.591L296 138.86v22.64l-161.513 27.268" />
        <path stroke-linecap="square" d="M231.937 129.995l25.506 14.263v11.843l-25.506 14.263" />
        <path stroke-linecap="round" d="M133.462 137.75l16.3-6.294 45.774 9.036v19.375l-45.773 9.037-16.3-6.293zM122.742 293.003v-16.78H62.718l-13.048-2.098v20.976l13.048-2.098zM235.613 284.613h-112M219.157 296v-22.774l-13.629 2.098v18.578zM132.891 222.434v-32.887h-58.21v32.887zM71.635 197.039H18.861L4 190.746v30.49l14.86-6.293h52.775M18.86 214.943v-17.904M117.015 274.386v-49.44" />
    </g>
</svg>